<svg xmlns="http://www.w3.org/2000/svg" viewBox="0 0 74.22 20.96"><defs><style>.cls-1,.cls-2{fill:#fff;}.cls-2{font-size:10.25px;font-family:DFZongYi-Bd-HKP-BF, DFPZongYiBold-B5;}</style></defs><g id="圖層_2" data-name="圖層 2"><g id="圖層_1-2" data-name="圖層 1"><path class="cls-1" d="M6.54,2.33,4.66,7.23h5.2l1.06-2.79H18a5.46,5.46,0,0,0,2.26-.59A6.78,6.78,0,0,0,23.14,0C21.71,0,10.51,0,10.51,0S7.42,0,6.54,2.33Z"/><path class="cls-1" d="M4.42,8.11,0,20.88A6.41,6.41,0,0,0,4.2,20a6.87,6.87,0,0,0,2.24-2.48l1.7-4.8h6.5a6.64,6.64,0,0,0,3-.63c1.56-.73,2.6-3.93,2.6-3.93Z"/><path class="cls-1" d="M22.3,4.52a7.77,7.77,0,0,1,2-2.88A8.26,8.26,0,0,1,27.38,0h7.27l-5.6,16.39h4.42a10.36,10.36,0,0,1-2,3.41A5.07,5.07,0,0,1,28.48,21H17.85a8,8,0,0,1,2.54-3.53,5.93,5.93,0,0,1,3.2-.94L27.73,4.43Z"/><text class="cls-2" transform="matrix(0.94, 0, -0.34, 0.94, 34.5, 14.82)">GAMES</text></g></g></svg>